<?xml version="1.0" encoding="iso-8859-1"?>
<!-- Generator: Adobe Illustrator 19.0.0, SVG Export Plug-In . SVG Version: 6.00 Build 0)  -->
<svg version="1.1" id="Layer_1" xmlns="http://www.w3.org/2000/svg" xmlns:xlink="http://www.w3.org/1999/xlink" x="0px" y="0px"
	 viewBox="0 0 512 512" style="enable-background:new 0 0 512 512;" xml:space="preserve">
<g>
	<g>
		<path d="M306.739,172.715l-29.034-39.172c-1.435-1.935-3.7-3.076-6.109-3.076c-2.409,0-4.675,1.142-6.108,3.076l-29.033,39.172
			c-1.993,2.689-1.993,6.366,0,9.056l29.033,39.172c1.434,1.934,3.7,3.076,6.108,3.076c2.409,0,4.674-1.141,6.109-3.076
			l29.034-39.172C308.732,179.082,308.732,175.405,306.739,172.715z M271.597,203.644l-19.568-26.401l19.568-26.401l19.569,26.401
			L271.597,203.644z"/>
	</g>
</g>
<g>
	<g>
		<path d="M386.858,172.715l-29.033-39.172c-1.435-1.934-3.7-3.076-6.109-3.076s-4.674,1.142-6.109,3.076l-29.033,39.172
			c-1.993,2.689-1.993,6.366,0,9.056l29.033,39.172c1.435,1.934,3.7,3.076,6.109,3.076s4.674-1.142,6.109-3.076l29.033-39.172
			C388.851,179.082,388.851,175.405,386.858,172.715z M351.717,203.644l-19.569-26.401l19.569-26.401l19.569,26.401L351.717,203.644
			z"/>
	</g>
</g>
<g>
	<g>
		<path d="M443.672,87.305h-264.03c-4.2,0-7.604,3.404-7.604,7.604v9.093h-52.932V71.301c11.086-6.752,18.503-18.954,18.503-32.856
			C137.61,17.247,120.364,0,99.166,0S60.723,17.247,60.723,38.445c0,13.903,7.418,26.105,18.504,32.857v433.094
			c0,4.2,3.404,7.604,7.604,7.604h24.672c4.2,0,7.604-3.404,7.604-7.604V307.105h90.951c0.327,0,0.647-0.027,0.963-0.068
			c0.081-0.01,0.16-0.024,0.24-0.036c0.264-0.042,0.522-0.096,0.776-0.165c0.054-0.014,0.108-0.026,0.162-0.042
			c0.309-0.09,0.611-0.2,0.903-0.327c0.036-0.015,0.07-0.034,0.105-0.051c0.253-0.116,0.498-0.245,0.735-0.386
			c0.063-0.038,0.126-0.075,0.188-0.114c0.527-0.335,1.009-0.732,1.437-1.182c0.059-0.062,0.115-0.125,0.171-0.189
			c0.177-0.2,0.345-0.408,0.501-0.625c0.028-0.04,0.06-0.076,0.087-0.117c0.18-0.263,0.342-0.538,0.489-0.823
			c0.011-0.022,0.026-0.042,0.038-0.064c0.018-0.036,0.029-0.075,0.047-0.112c0.121-0.248,0.227-0.504,0.32-0.766
			c0.019-0.053,0.041-0.105,0.058-0.159c0.099-0.301,0.18-0.608,0.242-0.925c0.011-0.056,0.016-0.113,0.025-0.168
			c0.043-0.248,0.072-0.502,0.09-0.758c0.007-0.098,0.012-0.196,0.015-0.295c0.002-0.078,0.012-0.154,0.012-0.233v-33.325h226.01
			c4.2,0,7.604-3.404,7.604-7.604V94.909C451.276,90.709,447.873,87.305,443.672,87.305z M99.166,15.208
			c10.149,0,18.794,6.544,21.951,15.633H77.215C80.372,21.752,89.018,15.208,99.166,15.208z M103.899,496.792h-9.464V76.888h9.464
			V496.792z M99.166,61.68c-10.149,0-18.794-6.543-21.951-15.632h43.902C117.96,55.137,109.315,61.68,99.166,61.68z
			 M119.107,291.897V119.21h52.932v139.362c0,0.054,0.007,0.105,0.008,0.158c0.003,0.142,0.011,0.284,0.021,0.427
			c0.008,0.112,0.018,0.223,0.031,0.333c0.016,0.134,0.038,0.267,0.061,0.399c0.02,0.117,0.042,0.233,0.067,0.348
			c0.027,0.123,0.06,0.243,0.094,0.365c0.033,0.122,0.068,0.243,0.107,0.362c0.036,0.112,0.079,0.221,0.121,0.331
			c0.049,0.126,0.097,0.25,0.152,0.373c0.045,0.099,0.093,0.197,0.142,0.295c0.065,0.13,0.131,0.258,0.203,0.382
			c0.051,0.089,0.105,0.176,0.16,0.264c0.08,0.128,0.163,0.253,0.251,0.376c0.029,0.041,0.053,0.083,0.082,0.123l21.395,28.79
			H119.107z M202.454,276.521l-7.687-10.344h7.687V276.521z M436.068,250.968H187.246V102.513h248.822V250.968z"/>
	</g>
</g>
<g>
</g>
<g>
</g>
<g>
</g>
<g>
</g>
<g>
</g>
<g>
</g>
<g>
</g>
<g>
</g>
<g>
</g>
<g>
</g>
<g>
</g>
<g>
</g>
<g>
</g>
<g>
</g>
<g>
</g>
</svg>
