<?xml version="1.0" encoding="iso-8859-1"?>
<!-- Generator: Adobe Illustrator 19.0.0, SVG Export Plug-In . SVG Version: 6.00 Build 0)  -->
<svg version="1.1" id="Capa_1" xmlns="http://www.w3.org/2000/svg" xmlns:xlink="http://www.w3.org/1999/xlink" x="0px" y="0px"
	 viewBox="0 0 512 512" style="enable-background:new 0 0 512 512;" xml:space="preserve">
<g>
	<g>
		<path d="M512,256l-35.003-59.222l0.74-68.815l-59.99-33.71l-33.71-59.99l-68.815,0.739L256,0l-59.222,35.003l-68.815-0.74
			l-33.71,59.991l-59.99,33.71l0.739,68.815L0,256l35.002,59.222l-0.74,68.815l59.99,33.71l33.71,59.99l68.816-0.739L256,512
			l59.222-35.002l68.815,0.739l33.71-59.989l59.99-33.71l-0.739-68.816L512,256z M395.664,395.665l-29.115,51.814l-59.399-0.637
			L256,477.074l-51.15-30.232l-59.4,0.637l-29.116-51.815L64.52,366.55l0.637-59.399L34.926,256l30.232-51.15l-0.637-59.4
			l51.815-29.115L145.45,64.52l59.399,0.637L256,34.926l51.15,30.232l59.4-0.637l29.115,51.814l51.815,29.116l-0.637,59.399
			L477.073,256l-30.232,51.15l0.637,59.4L395.664,395.665z"/>
	</g>
</g>
<g>
	<g>
		<polygon points="156.74,212.853 156.74,252.056 123.948,212.853 100.032,212.853 100.032,299.148 128.386,299.148 
			128.386,259.945 161.178,299.148 185.093,299.148 185.093,212.853 		"/>
	</g>
</g>
<g>
	<g>
		<polygon points="225.28,277.205 225.28,265.862 261.77,265.862 261.77,244.905 225.28,244.905 225.28,234.796 266.824,234.796 
			266.824,212.853 196.68,212.853 196.68,299.148 268.427,299.148 268.427,277.205 		"/>
	</g>
</g>
<g>
	<g>
		<polygon points="388.746,212.853 372.843,262.534 357.803,212.853 331.052,212.853 315.149,261.917 300.108,212.853 
			270.152,212.853 297.766,299.148 328.956,299.148 343.626,253.041 357.557,299.148 388.746,299.148 416.361,212.853 		"/>
	</g>
</g>
<g>
	<g>
		<path d="M329.619,111.624c-22.933-11.716-47.702-17.657-73.62-17.657c-25.917,0-50.686,5.94-73.62,17.657
			c-21.86,11.168-41.226,27.471-56.005,47.147l24.04,18.059c25.203-33.551,63.687-52.794,105.586-52.794
			s80.382,19.242,105.585,52.794l24.04-18.059C370.845,139.095,351.479,122.792,329.619,111.624z"/>
	</g>
</g>
<g>
	<g>
		<path d="M361.585,335.17c-25.203,33.552-63.687,52.795-105.585,52.795c-41.898,0-80.383-19.243-105.585-52.795l-24.041,18.059
			c14.78,19.676,34.146,35.979,56.006,47.147c22.933,11.716,47.702,17.657,73.62,17.657c25.917,0,50.686-5.94,73.62-17.657
			c21.859-11.168,41.226-27.472,56.005-47.147L361.585,335.17z"/>
	</g>
</g>
<g>
</g>
<g>
</g>
<g>
</g>
<g>
</g>
<g>
</g>
<g>
</g>
<g>
</g>
<g>
</g>
<g>
</g>
<g>
</g>
<g>
</g>
<g>
</g>
<g>
</g>
<g>
</g>
<g>
</g>
</svg>
