<?xml version="1.0" encoding="iso-8859-1"?>
<!-- Generator: Adobe Illustrator 19.0.0, SVG Export Plug-In . SVG Version: 6.00 Build 0)  -->
<svg version="1.1" id="Layer_1" xmlns="http://www.w3.org/2000/svg" xmlns:xlink="http://www.w3.org/1999/xlink" x="0px" y="0px"
	 viewBox="0 0 512.001 512.001" style="enable-background:new 0 0 512.001 512.001;" xml:space="preserve">
<path style="fill:#CEE8FA;" d="M255.999,136.493v143.399h143.399C399.398,200.695,335.197,136.493,255.999,136.493z"/>
<path style="fill:#2D527C;" d="M473.474,265.258c-8.081,0-14.635,6.552-14.635,14.634c0,111.846-90.994,202.84-202.84,202.84
	S53.161,391.738,53.161,279.892s90.993-202.84,202.839-202.84c44.795,0,88.046,14.752,123.326,41.796l-31.682,31.845
	c-25.89-18.418-57.521-29.265-91.643-29.265c-8.318,0-15.063,6.744-15.063,15.063v143.399c0,8.32,6.745,15.063,15.063,15.063
	h127.448c-7.481,63.692-61.778,113.273-127.448,113.273c-70.764,0-128.336-57.572-128.336-128.336
	c0-40.39,18.448-77.617,50.615-102.134c6.615-5.043,7.891-14.495,2.848-21.112c-5.042-6.616-14.494-7.891-21.112-2.848
	c-39.703,30.266-62.476,76.225-62.476,126.094c0,87.377,71.086,158.462,158.462,158.462s158.462-71.086,158.462-158.462
	c0-38.572-13.859-73.963-36.85-101.471l90.848,24.343c1.251,0.335,2.524,0.499,3.786,0.499c0.056,0,0.111,0,0.167,0
	c8.018-0.073,14.497-6.597,14.497-14.635c0-1.651-0.274-3.237-0.776-4.718L456.376,72.845c-1.354-5.05-5.298-8.994-10.348-10.348
	c-5.055-1.357-10.44,0.091-14.135,3.787L400.177,98c-37.107-29.439-82.256-46.772-129.54-49.747V29.269h17.755
	c8.081,0,14.634-6.552,14.634-14.635S296.473,0,288.391,0h-64.778c-8.081,0-14.635,6.552-14.635,14.635s6.553,14.635,14.635,14.635
	h17.755v18.99C120.173,55.837,23.892,156.823,23.892,279.892c0,127.985,104.123,232.109,232.109,232.109
	S488.11,407.878,488.11,279.892C488.108,271.81,481.555,265.258,473.474,265.258z M378.919,242.99
	c0.082,0.271,0.164,0.543,0.243,0.815c0.445,1.518,0.866,3.047,1.257,4.588c0.06,0.237,0.116,0.474,0.174,0.713
	c0.388,1.569,0.754,3.146,1.083,4.737c0.01,0.051,0.023,0.102,0.034,0.155c0.329,1.601,0.619,3.215,0.888,4.837
	c0.048,0.29,0.098,0.578,0.145,0.868c0.247,1.56,0.465,3.13,0.656,4.708c0.016,0.139,0.032,0.28,0.048,0.419H271.063V152.445
	c0.13,0.015,0.26,0.029,0.391,0.045c1.597,0.193,3.184,0.413,4.764,0.664c0.269,0.042,0.536,0.089,0.803,0.133
	c1.639,0.271,3.272,0.565,4.889,0.899c0.031,0.006,0.06,0.013,0.089,0.019c1.619,0.335,3.223,0.705,4.818,1.101
	c0.221,0.054,0.442,0.107,0.663,0.162c1.551,0.392,3.091,0.817,4.62,1.266c0.262,0.078,0.524,0.155,0.786,0.234
	c1.544,0.464,3.078,0.951,4.595,1.472c0.143,0.05,0.285,0.102,0.429,0.152c1.528,0.53,3.044,1.086,4.545,1.671
	c0.092,0.037,0.186,0.07,0.278,0.105c1.515,0.594,3.012,1.222,4.499,1.872c0.22,0.097,0.44,0.192,0.66,0.29
	c1.459,0.648,2.904,1.32,4.333,2.02c0.181,0.088,0.36,0.18,0.54,0.269c2.972,1.472,5.882,3.056,8.719,4.747
	c0.149,0.089,0.3,0.176,0.449,0.265c1.374,0.827,2.731,1.68,4.071,2.555c0.18,0.117,0.36,0.237,0.539,0.356
	c1.357,0.896,2.697,1.813,4.017,2.759c0.066,0.047,0.132,0.097,0.198,0.143c1.348,0.969,2.677,1.964,3.985,2.983
	c0.05,0.038,0.101,0.076,0.151,0.116c1.285,1.005,2.548,2.039,3.795,3.091c0.155,0.13,0.31,0.262,0.464,0.392
	c1.222,1.042,2.425,2.104,3.606,3.19c0.12,0.11,0.239,0.222,0.357,0.334c2.432,2.252,4.775,4.597,7.027,7.027
	c0.11,0.119,0.222,0.237,0.332,0.356c1.086,1.182,2.15,2.385,3.192,3.607c0.132,0.154,0.26,0.309,0.391,0.462
	c1.052,1.245,2.085,2.508,3.089,3.793c0.041,0.053,0.079,0.105,0.12,0.157c1.017,1.305,2.009,2.631,2.975,3.975
	c0.048,0.069,0.1,0.136,0.149,0.203c0.944,1.317,1.859,2.656,2.753,4.01c0.121,0.183,0.241,0.366,0.361,0.549
	c0.874,1.338,1.725,2.691,2.549,4.061c0.092,0.154,0.181,0.309,0.274,0.462c1.686,2.83,3.265,5.729,4.734,8.694
	c0.094,0.189,0.189,0.378,0.282,0.566c0.697,1.424,1.367,2.863,2.012,4.316c0.099,0.225,0.198,0.452,0.297,0.678
	c0.647,1.48,1.272,2.972,1.864,4.48c0.04,0.102,0.078,0.205,0.117,0.307c0.579,1.487,1.13,2.988,1.655,4.502
	c0.054,0.154,0.11,0.307,0.162,0.461C377.972,239.93,378.456,241.455,378.919,242.99z M434.662,104.905l16.888,63.026
	l-63.025-16.888L434.662,104.905z"/>
<g>
</g>
<g>
</g>
<g>
</g>
<g>
</g>
<g>
</g>
<g>
</g>
<g>
</g>
<g>
</g>
<g>
</g>
<g>
</g>
<g>
</g>
<g>
</g>
<g>
</g>
<g>
</g>
<g>
</g>
</svg>
